<?xml version="1.0" encoding="utf-8"?>
<!-- Generator: Adobe Illustrator 15.0.2, SVG Export Plug-In . SVG Version: 6.00 Build 0)  -->
<!DOCTYPE svg PUBLIC "-//W3C//DTD SVG 1.1//EN" "http://www.w3.org/Graphics/SVG/1.1/DTD/svg11.dtd">
<svg version="1.1" id="Calque_1" xmlns="http://www.w3.org/2000/svg" xmlns:xlink="http://www.w3.org/1999/xlink" x="0px" y="0px"
	 width="36px" height="252px" viewBox="0 0 36 252" enable-background="new 0 0 36 252" xml:space="preserve">
<g>
	<path fill="#FFC107" d="M21.179,26.657c0,0.241-0.084,0.45-0.252,0.626c-0.166,0.178-0.369,0.285-0.613,0.326h-4.65
		c-0.234-0.041-0.438-0.148-0.605-0.326c-0.174-0.176-0.258-0.385-0.258-0.626v-0.681c0-0.334-0.023-0.625-0.068-0.877
		c-0.047-0.25-0.135-0.523-0.271-0.815c-0.133-0.293-0.322-0.636-0.574-1.029c-0.25-0.394-0.574-0.894-0.976-1.495
		c-0.45-0.687-0.837-1.292-1.157-1.813c-0.32-0.523-0.582-1.016-0.787-1.477c-0.205-0.459-0.355-0.916-0.451-1.361
		c-0.096-0.447-0.145-0.94-0.145-1.476c0-0.694,0.09-1.364,0.271-2.01c0.178-0.646,0.436-1.246,0.769-1.808s0.729-1.069,1.194-1.526
		c0.464-0.455,0.977-0.847,1.537-1.174c0.563-0.325,1.172-0.58,1.828-0.759c0.652-0.18,1.332-0.271,2.031-0.271
		c0.691,0,1.36,0.092,2.001,0.271c0.642,0.178,1.246,0.433,1.814,0.758c0.565,0.326,1.082,0.719,1.551,1.174
		c0.467,0.457,0.869,0.967,1.205,1.525c0.34,0.563,0.603,1.164,0.785,1.809c0.182,0.645,0.274,1.314,0.274,2.01
		c0,0.493-0.054,0.971-0.156,1.432c-0.105,0.459-0.265,0.932-0.477,1.412c-0.213,0.481-0.48,0.988-0.801,1.524
		c-0.32,0.537-0.695,1.118-1.119,1.745c-0.4,0.596-0.727,1.085-0.977,1.47c-0.25,0.386-0.441,0.724-0.582,1.013
		c-0.135,0.287-0.229,0.558-0.275,0.809c-0.043,0.251-0.066,0.544-0.066,0.88V26.657L21.179,26.657z"/>
	<path fill="#607D8B" d="M21.179,30.234c0,0.117-0.01,0.219-0.024,0.302c-0.011,0.034-0.015,0.065-0.015,0.103
		c-0.03,0.092-0.051,0.195-0.051,0.312c0,0.118,0.021,0.21,0.051,0.276c0,0.019,0.004,0.043,0.015,0.076
		c0.017,0.065,0.024,0.154,0.024,0.264c0,0.143-0.021,0.264-0.057,0.365c-0.037,0.098-0.078,0.184-0.119,0.25
		c-0.051,0.084-0.109,0.146-0.176,0.188c-0.074,0.041-0.152,0.083-0.232,0.126c-0.078,0.042-0.133,0.063-0.168,0.063
		c-0.041,0-0.096,0.022-0.162,0.069c-0.065,0.046-0.125,0.103-0.176,0.168L19.64,33.6c-0.049,0.069-0.121,0.129-0.213,0.184
		c-0.092,0.054-0.176,0.1-0.25,0.132h-2.338c-0.086-0.032-0.173-0.078-0.265-0.132c-0.093-0.055-0.158-0.113-0.199-0.184
		l-0.501-0.804c-0.043-0.065-0.092-0.122-0.15-0.168c-0.059-0.047-0.107-0.069-0.149-0.069c-0.05,0-0.11-0.021-0.183-0.063
		c-0.068-0.043-0.144-0.085-0.217-0.126c-0.068-0.042-0.127-0.104-0.177-0.188c-0.042-0.066-0.08-0.152-0.112-0.25
		c-0.033-0.103-0.05-0.224-0.05-0.365c0-0.143,0.005-0.229,0.013-0.264c0-0.033,0.004-0.059,0.014-0.076
		c0.016-0.041,0.027-0.086,0.037-0.133c0.008-0.045,0.013-0.094,0.013-0.145c0-0.049-0.005-0.102-0.013-0.155
		c-0.01-0.056-0.021-0.108-0.037-0.155c-0.01-0.035-0.014-0.068-0.014-0.103c-0.008-0.041-0.013-0.144-0.013-0.302
		c0-0.149,0.019-0.283,0.056-0.4c0.039-0.117,0.078-0.213,0.119-0.289c0.051-0.093,0.113-0.172,0.188-0.238l0.525-0.275h4.556
		l0.524,0.275c0.066,0.066,0.127,0.146,0.187,0.238c0.043,0.076,0.084,0.172,0.125,0.289S21.179,30.085,21.179,30.234z"/>
	<path fill="#FFC107" d="M21.179,62.657c0,0.241-0.084,0.45-0.252,0.626c-0.166,0.178-0.369,0.285-0.613,0.326h-4.65
		c-0.234-0.041-0.438-0.148-0.605-0.326c-0.174-0.176-0.258-0.385-0.258-0.626v-0.681c0-0.334-0.023-0.625-0.068-0.877
		c-0.047-0.25-0.135-0.523-0.271-0.815c-0.133-0.293-0.322-0.636-0.574-1.029c-0.25-0.394-0.574-0.894-0.976-1.495
		c-0.45-0.687-0.837-1.292-1.157-1.813c-0.32-0.523-0.582-1.016-0.787-1.477c-0.205-0.459-0.355-0.916-0.451-1.361
		c-0.096-0.447-0.145-0.94-0.145-1.476c0-0.694,0.09-1.364,0.271-2.01c0.178-0.646,0.436-1.246,0.769-1.808s0.729-1.069,1.194-1.526
		c0.464-0.455,0.977-0.847,1.537-1.174c0.563-0.325,1.172-0.58,1.828-0.759c0.652-0.18,1.332-0.271,2.031-0.271
		c0.691,0,1.36,0.092,2.001,0.271c0.642,0.178,1.246,0.433,1.814,0.758c0.565,0.326,1.082,0.719,1.551,1.174
		c0.467,0.457,0.869,0.967,1.205,1.525c0.34,0.563,0.603,1.164,0.785,1.809c0.182,0.645,0.274,1.314,0.274,2.01
		c0,0.493-0.054,0.971-0.156,1.432c-0.105,0.459-0.265,0.932-0.477,1.412c-0.213,0.481-0.48,0.988-0.801,1.524
		c-0.32,0.537-0.695,1.118-1.119,1.745c-0.4,0.596-0.727,1.085-0.977,1.47c-0.25,0.386-0.441,0.724-0.582,1.013
		c-0.135,0.287-0.229,0.558-0.275,0.809c-0.043,0.251-0.066,0.544-0.066,0.88V62.657L21.179,62.657z"/>
	<path fill="#607D8B" d="M21.179,66.234c0,0.117-0.01,0.219-0.024,0.302c-0.011,0.034-0.015,0.065-0.015,0.103
		c-0.03,0.092-0.051,0.195-0.051,0.312c0,0.118,0.021,0.21,0.051,0.276c0,0.019,0.004,0.043,0.015,0.076
		c0.017,0.065,0.024,0.154,0.024,0.264c0,0.143-0.021,0.264-0.057,0.365c-0.037,0.098-0.078,0.184-0.119,0.25
		c-0.051,0.084-0.109,0.146-0.176,0.188c-0.074,0.041-0.152,0.083-0.232,0.126c-0.078,0.042-0.133,0.063-0.168,0.063
		c-0.041,0-0.096,0.022-0.162,0.069c-0.065,0.046-0.125,0.103-0.176,0.168L19.64,69.6c-0.049,0.069-0.121,0.129-0.213,0.184
		c-0.092,0.054-0.176,0.1-0.25,0.132h-2.338c-0.086-0.032-0.173-0.078-0.265-0.132c-0.093-0.055-0.158-0.113-0.199-0.184
		l-0.501-0.804c-0.043-0.065-0.092-0.122-0.15-0.168c-0.059-0.047-0.107-0.069-0.149-0.069c-0.05,0-0.11-0.021-0.183-0.063
		c-0.068-0.043-0.144-0.085-0.217-0.126c-0.068-0.042-0.127-0.104-0.177-0.188c-0.042-0.066-0.08-0.152-0.112-0.25
		c-0.033-0.103-0.05-0.224-0.05-0.365c0-0.143,0.005-0.229,0.013-0.264c0-0.033,0.004-0.059,0.014-0.076
		c0.016-0.041,0.027-0.086,0.037-0.133c0.008-0.045,0.013-0.094,0.013-0.145c0-0.049-0.005-0.102-0.013-0.155
		c-0.01-0.056-0.021-0.108-0.037-0.155c-0.01-0.035-0.014-0.068-0.014-0.103c-0.008-0.041-0.013-0.144-0.013-0.302
		c0-0.149,0.019-0.283,0.056-0.4c0.039-0.117,0.078-0.213,0.119-0.289c0.051-0.093,0.113-0.172,0.188-0.238l0.525-0.275h4.556
		l0.524,0.275c0.066,0.066,0.127,0.146,0.187,0.238c0.043,0.076,0.084,0.172,0.125,0.289S21.179,66.085,21.179,66.234z"/>
	<path fill="#FFC107" d="M21.179,98.657c0,0.241-0.084,0.45-0.252,0.626c-0.166,0.178-0.369,0.285-0.613,0.326h-4.65
		c-0.234-0.041-0.438-0.148-0.605-0.326c-0.174-0.176-0.258-0.385-0.258-0.626v-0.681c0-0.334-0.023-0.625-0.068-0.877
		c-0.047-0.25-0.135-0.523-0.271-0.815c-0.133-0.293-0.322-0.636-0.574-1.029c-0.25-0.394-0.574-0.894-0.976-1.495
		c-0.45-0.687-0.837-1.292-1.157-1.813c-0.32-0.523-0.582-1.016-0.787-1.477c-0.205-0.459-0.355-0.916-0.451-1.361
		c-0.096-0.447-0.145-0.94-0.145-1.476c0-0.694,0.09-1.364,0.271-2.01c0.178-0.646,0.436-1.246,0.769-1.808s0.729-1.069,1.194-1.526
		c0.464-0.455,0.977-0.847,1.537-1.174c0.563-0.325,1.172-0.58,1.828-0.759c0.652-0.18,1.332-0.271,2.031-0.271
		c0.691,0,1.36,0.092,2.001,0.271c0.642,0.178,1.246,0.433,1.814,0.758c0.565,0.326,1.082,0.719,1.551,1.174
		c0.467,0.457,0.869,0.967,1.205,1.525c0.34,0.563,0.603,1.164,0.785,1.809c0.182,0.645,0.274,1.314,0.274,2.01
		c0,0.493-0.054,0.971-0.156,1.432c-0.105,0.459-0.265,0.932-0.477,1.412c-0.213,0.481-0.48,0.988-0.801,1.524
		c-0.32,0.537-0.695,1.118-1.119,1.745c-0.4,0.596-0.727,1.085-0.977,1.47c-0.25,0.386-0.441,0.724-0.582,1.013
		c-0.135,0.287-0.229,0.558-0.275,0.809c-0.043,0.251-0.066,0.544-0.066,0.88V98.657L21.179,98.657z"/>
	<path fill="#607D8B" d="M21.179,102.234c0,0.117-0.01,0.219-0.024,0.302c-0.011,0.034-0.015,0.065-0.015,0.103
		c-0.03,0.092-0.051,0.195-0.051,0.312c0,0.118,0.021,0.21,0.051,0.276c0,0.019,0.004,0.043,0.015,0.076
		c0.017,0.065,0.024,0.154,0.024,0.264c0,0.143-0.021,0.264-0.057,0.365c-0.037,0.098-0.078,0.184-0.119,0.25
		c-0.051,0.084-0.109,0.146-0.176,0.188c-0.074,0.041-0.152,0.083-0.232,0.126c-0.078,0.042-0.133,0.063-0.168,0.063
		c-0.041,0-0.096,0.022-0.162,0.069c-0.065,0.046-0.125,0.103-0.176,0.168L19.64,105.6c-0.049,0.069-0.121,0.129-0.213,0.184
		c-0.092,0.054-0.176,0.1-0.25,0.132h-2.338c-0.086-0.032-0.173-0.078-0.265-0.132c-0.093-0.055-0.158-0.113-0.199-0.184
		l-0.501-0.804c-0.043-0.065-0.092-0.122-0.15-0.168c-0.059-0.047-0.107-0.069-0.149-0.069c-0.05,0-0.11-0.021-0.183-0.063
		c-0.068-0.043-0.144-0.085-0.217-0.126c-0.068-0.042-0.127-0.104-0.177-0.188c-0.042-0.066-0.08-0.152-0.112-0.25
		c-0.033-0.103-0.05-0.224-0.05-0.365c0-0.143,0.005-0.229,0.013-0.264c0-0.033,0.004-0.059,0.014-0.076
		c0.016-0.041,0.027-0.086,0.037-0.133c0.008-0.045,0.013-0.094,0.013-0.145c0-0.049-0.005-0.102-0.013-0.155
		c-0.01-0.056-0.021-0.108-0.037-0.155c-0.01-0.035-0.014-0.068-0.014-0.103c-0.008-0.041-0.013-0.144-0.013-0.302
		c0-0.149,0.019-0.283,0.056-0.4c0.039-0.117,0.078-0.213,0.119-0.289c0.051-0.093,0.113-0.172,0.188-0.238l0.525-0.275h4.556
		l0.524,0.275c0.066,0.066,0.127,0.146,0.187,0.238c0.043,0.076,0.084,0.172,0.125,0.289S21.179,102.085,21.179,102.234z"/>
	<path fill="#FFC107" d="M21.179,134.656c0,0.242-0.084,0.451-0.252,0.627c-0.166,0.178-0.369,0.285-0.613,0.326h-4.65
		c-0.234-0.041-0.438-0.148-0.605-0.326c-0.174-0.176-0.258-0.385-0.258-0.627v-0.68c0-0.334-0.023-0.625-0.068-0.877
		c-0.047-0.25-0.135-0.523-0.271-0.816c-0.133-0.293-0.322-0.635-0.574-1.029c-0.25-0.393-0.574-0.893-0.976-1.494
		c-0.45-0.688-0.837-1.293-1.157-1.814c-0.32-0.522-0.582-1.014-0.787-1.475s-0.355-0.916-0.451-1.361
		c-0.096-0.448-0.145-0.94-0.145-1.477c0-0.695,0.09-1.365,0.271-2.01c0.178-0.645,0.436-1.246,0.769-1.807
		c0.333-0.562,0.729-1.07,1.194-1.527c0.464-0.455,0.977-0.846,1.537-1.174c0.563-0.324,1.172-0.58,1.828-0.758
		c0.652-0.18,1.332-0.271,2.031-0.271c0.691,0,1.36,0.092,2.001,0.271c0.642,0.178,1.246,0.434,1.814,0.758
		c0.565,0.328,1.082,0.719,1.551,1.174c0.467,0.457,0.869,0.967,1.205,1.527c0.34,0.561,0.603,1.162,0.785,1.807
		c0.182,0.645,0.274,1.314,0.274,2.01c0,0.494-0.054,0.971-0.156,1.432c-0.105,0.459-0.265,0.933-0.477,1.412
		c-0.213,0.482-0.48,0.988-0.801,1.525c-0.321,0.537-0.695,1.117-1.119,1.744c-0.4,0.596-0.727,1.086-0.977,1.471
		s-0.441,0.723-0.582,1.012c-0.135,0.287-0.229,0.558-0.275,0.81c-0.043,0.25-0.066,0.543-0.066,0.879V134.656L21.179,134.656z"/>
	<path fill="#607D8B" d="M21.179,138.234c0,0.117-0.01,0.22-0.024,0.302c-0.011,0.034-0.015,0.065-0.015,0.103
		c-0.03,0.092-0.051,0.196-0.051,0.313c0,0.117,0.021,0.209,0.051,0.275c0,0.02,0.004,0.045,0.015,0.075
		c0.017,0.066,0.024,0.156,0.024,0.265c0,0.143-0.021,0.264-0.057,0.365c-0.037,0.1-0.078,0.184-0.119,0.252
		c-0.051,0.082-0.109,0.145-0.176,0.188c-0.074,0.041-0.152,0.082-0.232,0.125c-0.078,0.043-0.133,0.063-0.168,0.063
		c-0.041,0-0.096,0.023-0.162,0.07c-0.065,0.045-0.125,0.102-0.176,0.168L19.64,141.6c-0.049,0.07-0.121,0.129-0.213,0.184
		c-0.092,0.054-0.176,0.101-0.25,0.132h-2.338c-0.086-0.031-0.173-0.078-0.265-0.132c-0.092-0.055-0.158-0.112-0.199-0.184
		l-0.501-0.803c-0.043-0.066-0.092-0.123-0.15-0.168c-0.059-0.047-0.107-0.07-0.149-0.07c-0.05,0-0.11-0.02-0.183-0.063
		c-0.068-0.043-0.144-0.084-0.217-0.125c-0.068-0.043-0.127-0.105-0.177-0.188c-0.042-0.068-0.08-0.152-0.112-0.252
		c-0.033-0.103-0.05-0.224-0.05-0.365c0-0.143,0.005-0.229,0.013-0.265c0-0.03,0.004-0.057,0.014-0.075
		c0.016-0.041,0.027-0.084,0.037-0.132c0.008-0.045,0.013-0.094,0.013-0.146c0-0.049-0.005-0.102-0.013-0.155
		c-0.01-0.056-0.021-0.106-0.037-0.155c-0.01-0.035-0.014-0.066-0.014-0.103c-0.008-0.041-0.013-0.144-0.013-0.302
		c0-0.149,0.019-0.282,0.056-0.399c0.039-0.117,0.078-0.213,0.119-0.289c0.051-0.094,0.113-0.172,0.188-0.237l0.525-0.277h4.556
		l0.524,0.277c0.066,0.065,0.127,0.145,0.187,0.237c0.043,0.076,0.084,0.172,0.125,0.289S21.179,138.084,21.179,138.234z"/>
	<path fill="#FFC107" d="M21.179,170.656c0,0.242-0.084,0.451-0.252,0.627c-0.166,0.178-0.369,0.285-0.613,0.326h-4.65
		c-0.234-0.041-0.438-0.148-0.605-0.326c-0.174-0.176-0.258-0.385-0.258-0.627v-0.68c0-0.334-0.023-0.625-0.068-0.877
		c-0.047-0.25-0.135-0.523-0.271-0.816c-0.133-0.293-0.322-0.635-0.574-1.029c-0.25-0.393-0.574-0.893-0.976-1.494
		c-0.45-0.688-0.837-1.293-1.157-1.814s-0.582-1.014-0.787-1.475s-0.355-0.916-0.451-1.361c-0.096-0.449-0.145-0.939-0.145-1.477
		c0-0.695,0.09-1.365,0.271-2.01c0.178-0.645,0.436-1.246,0.769-1.807s0.729-1.07,1.194-1.527c0.464-0.455,0.977-0.846,1.537-1.174
		c0.563-0.324,1.172-0.58,1.828-0.758c0.652-0.18,1.332-0.271,2.031-0.271c0.691,0,1.36,0.092,2.001,0.271
		c0.642,0.178,1.246,0.434,1.814,0.758c0.565,0.328,1.082,0.719,1.551,1.174c0.467,0.457,0.869,0.967,1.205,1.527
		c0.34,0.561,0.603,1.162,0.785,1.807c0.182,0.645,0.274,1.314,0.274,2.01c0,0.494-0.054,0.971-0.156,1.432
		c-0.105,0.459-0.265,0.932-0.477,1.412c-0.213,0.482-0.48,0.988-0.801,1.525c-0.321,0.537-0.695,1.117-1.119,1.744
		c-0.4,0.596-0.727,1.086-0.977,1.471s-0.441,0.723-0.582,1.012c-0.135,0.287-0.229,0.557-0.275,0.809
		c-0.043,0.25-0.066,0.543-0.066,0.879V170.656L21.179,170.656z"/>
	<path fill="#607D8B" d="M21.179,174.234c0,0.117-0.01,0.219-0.024,0.301c-0.011,0.035-0.015,0.066-0.015,0.104
		c-0.03,0.092-0.051,0.195-0.051,0.313s0.021,0.209,0.051,0.275c0,0.02,0.004,0.045,0.015,0.076
		c0.017,0.064,0.024,0.154,0.024,0.264c0,0.143-0.021,0.264-0.057,0.365c-0.037,0.1-0.078,0.184-0.119,0.252
		c-0.051,0.082-0.109,0.145-0.176,0.188c-0.074,0.041-0.152,0.082-0.232,0.125c-0.078,0.043-0.133,0.063-0.168,0.063
		c-0.041,0-0.096,0.023-0.162,0.07c-0.065,0.045-0.125,0.102-0.176,0.168L19.64,177.6c-0.049,0.07-0.121,0.129-0.213,0.184
		s-0.176,0.102-0.25,0.131h-2.338c-0.086-0.029-0.173-0.076-0.265-0.131s-0.158-0.111-0.199-0.184l-0.501-0.803
		c-0.043-0.066-0.092-0.123-0.15-0.168c-0.059-0.047-0.107-0.07-0.149-0.07c-0.05,0-0.11-0.02-0.183-0.063
		c-0.068-0.043-0.144-0.084-0.217-0.125c-0.068-0.043-0.127-0.105-0.177-0.188c-0.042-0.068-0.08-0.152-0.112-0.252
		c-0.033-0.104-0.05-0.225-0.05-0.365c0-0.143,0.005-0.229,0.013-0.264c0-0.031,0.004-0.059,0.014-0.076
		c0.016-0.041,0.027-0.084,0.037-0.131c0.008-0.045,0.013-0.096,0.013-0.146c0-0.049-0.005-0.102-0.013-0.156
		c-0.01-0.055-0.021-0.105-0.037-0.154c-0.01-0.035-0.014-0.066-0.014-0.104c-0.008-0.041-0.013-0.143-0.013-0.301
		c0-0.15,0.019-0.283,0.056-0.4c0.039-0.115,0.078-0.213,0.119-0.287c0.051-0.096,0.113-0.174,0.188-0.238l0.525-0.277h4.556
		l0.524,0.277c0.066,0.064,0.127,0.145,0.187,0.238c0.043,0.074,0.084,0.172,0.125,0.287
		C21.156,173.951,21.179,174.084,21.179,174.234z"/>
	<path fill="#FFC107" d="M21.179,206.656c0,0.242-0.084,0.451-0.252,0.627c-0.166,0.178-0.369,0.285-0.613,0.326h-4.65
		c-0.234-0.041-0.438-0.148-0.605-0.326c-0.174-0.176-0.258-0.385-0.258-0.627v-0.68c0-0.334-0.023-0.625-0.068-0.877
		c-0.047-0.25-0.135-0.523-0.271-0.816c-0.133-0.293-0.322-0.635-0.574-1.029c-0.25-0.393-0.574-0.893-0.976-1.494
		c-0.45-0.688-0.837-1.293-1.157-1.814s-0.582-1.014-0.787-1.475s-0.355-0.916-0.451-1.361c-0.096-0.449-0.145-0.939-0.145-1.477
		c0-0.695,0.09-1.365,0.271-2.01c0.178-0.645,0.436-1.246,0.769-1.807s0.729-1.07,1.194-1.527c0.464-0.455,0.977-0.846,1.537-1.174
		c0.563-0.324,1.172-0.58,1.828-0.758c0.652-0.18,1.332-0.271,2.031-0.271c0.691,0,1.36,0.092,2.001,0.271
		c0.642,0.178,1.246,0.434,1.814,0.758c0.565,0.328,1.082,0.719,1.551,1.174c0.467,0.457,0.869,0.967,1.205,1.527
		c0.34,0.561,0.603,1.162,0.785,1.807c0.182,0.645,0.274,1.314,0.274,2.01c0,0.494-0.054,0.971-0.156,1.432
		c-0.105,0.459-0.265,0.932-0.477,1.412c-0.213,0.482-0.48,0.988-0.801,1.525c-0.321,0.537-0.695,1.117-1.119,1.744
		c-0.4,0.596-0.727,1.086-0.977,1.471s-0.441,0.723-0.582,1.012c-0.135,0.287-0.229,0.557-0.275,0.809
		c-0.043,0.25-0.066,0.543-0.066,0.879V206.656L21.179,206.656z"/>
	<path fill="#607D8B" d="M21.179,210.234c0,0.117-0.01,0.219-0.024,0.301c-0.011,0.035-0.015,0.066-0.015,0.104
		c-0.03,0.092-0.051,0.195-0.051,0.313s0.021,0.209,0.051,0.275c0,0.02,0.004,0.045,0.015,0.076
		c0.017,0.064,0.024,0.154,0.024,0.264c0,0.143-0.021,0.264-0.057,0.365c-0.037,0.1-0.078,0.184-0.119,0.252
		c-0.051,0.082-0.109,0.145-0.176,0.188c-0.074,0.041-0.152,0.082-0.232,0.125c-0.078,0.043-0.133,0.063-0.168,0.063
		c-0.041,0-0.096,0.023-0.162,0.07c-0.065,0.045-0.125,0.102-0.176,0.168L19.64,213.6c-0.049,0.07-0.121,0.129-0.213,0.184
		s-0.176,0.102-0.25,0.131h-2.338c-0.086-0.029-0.173-0.076-0.265-0.131s-0.158-0.111-0.199-0.184l-0.501-0.803
		c-0.043-0.066-0.092-0.123-0.15-0.168c-0.059-0.047-0.107-0.07-0.149-0.07c-0.05,0-0.11-0.02-0.183-0.063
		c-0.068-0.043-0.144-0.084-0.217-0.125c-0.068-0.043-0.127-0.105-0.177-0.188c-0.042-0.068-0.08-0.152-0.112-0.252
		c-0.033-0.104-0.05-0.225-0.05-0.365c0-0.143,0.005-0.229,0.013-0.264c0-0.031,0.004-0.059,0.014-0.076
		c0.016-0.041,0.027-0.084,0.037-0.131c0.008-0.045,0.013-0.096,0.013-0.146c0-0.049-0.005-0.102-0.013-0.156
		c-0.01-0.055-0.021-0.105-0.037-0.154c-0.01-0.035-0.014-0.066-0.014-0.104c-0.008-0.041-0.013-0.143-0.013-0.301
		c0-0.15,0.019-0.283,0.056-0.4c0.039-0.115,0.078-0.213,0.119-0.287c0.051-0.096,0.113-0.174,0.188-0.238l0.525-0.277h4.556
		l0.524,0.277c0.066,0.064,0.127,0.145,0.187,0.238c0.043,0.074,0.084,0.172,0.125,0.287
		C21.156,209.951,21.179,210.084,21.179,210.234z"/>
	<path fill="#FFC107" d="M21.179,242.656c0,0.242-0.084,0.451-0.252,0.627c-0.166,0.178-0.369,0.285-0.613,0.326h-4.65
		c-0.234-0.041-0.438-0.148-0.605-0.326c-0.174-0.176-0.258-0.385-0.258-0.627v-0.68c0-0.334-0.023-0.625-0.068-0.877
		c-0.047-0.25-0.135-0.523-0.271-0.816c-0.133-0.293-0.322-0.635-0.574-1.029c-0.25-0.393-0.574-0.893-0.976-1.494
		c-0.45-0.688-0.837-1.293-1.157-1.814s-0.582-1.014-0.787-1.475s-0.355-0.916-0.451-1.361c-0.096-0.449-0.145-0.939-0.145-1.477
		c0-0.695,0.09-1.365,0.271-2.01c0.178-0.645,0.436-1.246,0.769-1.807s0.729-1.07,1.194-1.527c0.464-0.455,0.977-0.846,1.537-1.174
		c0.563-0.324,1.172-0.58,1.828-0.758c0.652-0.18,1.332-0.271,2.031-0.271c0.691,0,1.36,0.092,2.001,0.271
		c0.642,0.178,1.246,0.434,1.814,0.758c0.565,0.328,1.082,0.719,1.551,1.174c0.467,0.457,0.869,0.967,1.205,1.527
		c0.34,0.561,0.603,1.162,0.785,1.807c0.182,0.645,0.274,1.314,0.274,2.01c0,0.494-0.054,0.971-0.156,1.432
		c-0.105,0.459-0.265,0.932-0.477,1.412c-0.213,0.482-0.48,0.988-0.801,1.525c-0.321,0.537-0.695,1.117-1.119,1.744
		c-0.4,0.596-0.727,1.086-0.977,1.471s-0.441,0.723-0.582,1.012c-0.135,0.287-0.229,0.557-0.275,0.809
		c-0.043,0.25-0.066,0.543-0.066,0.879V242.656L21.179,242.656z"/>
	<path fill="#607D8B" d="M21.179,246.234c0,0.117-0.01,0.219-0.024,0.301c-0.011,0.035-0.015,0.066-0.015,0.104
		c-0.03,0.092-0.051,0.195-0.051,0.313s0.021,0.209,0.051,0.275c0,0.02,0.004,0.045,0.015,0.076
		c0.017,0.064,0.024,0.154,0.024,0.264c0,0.143-0.021,0.264-0.057,0.365c-0.037,0.1-0.078,0.184-0.119,0.252
		c-0.051,0.082-0.109,0.145-0.176,0.188c-0.074,0.041-0.152,0.082-0.232,0.125c-0.078,0.043-0.133,0.063-0.168,0.063
		c-0.041,0-0.096,0.023-0.162,0.07c-0.065,0.045-0.125,0.102-0.176,0.168L19.64,249.6c-0.049,0.07-0.121,0.129-0.213,0.184
		s-0.176,0.102-0.25,0.131h-2.338c-0.086-0.029-0.173-0.076-0.265-0.131s-0.158-0.111-0.199-0.184l-0.501-0.803
		c-0.043-0.066-0.092-0.123-0.15-0.168c-0.059-0.047-0.107-0.07-0.149-0.07c-0.05,0-0.11-0.02-0.183-0.063
		c-0.068-0.043-0.144-0.084-0.217-0.125c-0.068-0.043-0.127-0.105-0.177-0.188c-0.042-0.068-0.08-0.152-0.112-0.252
		c-0.033-0.104-0.05-0.225-0.05-0.365c0-0.143,0.005-0.229,0.013-0.264c0-0.031,0.004-0.059,0.014-0.076
		c0.016-0.041,0.027-0.084,0.037-0.131c0.008-0.045,0.013-0.096,0.013-0.146c0-0.049-0.005-0.102-0.013-0.156
		c-0.01-0.055-0.021-0.105-0.037-0.154c-0.01-0.035-0.014-0.066-0.014-0.104c-0.008-0.041-0.013-0.143-0.013-0.301
		c0-0.15,0.019-0.283,0.056-0.4c0.039-0.115,0.078-0.213,0.119-0.287c0.051-0.096,0.113-0.174,0.188-0.238l0.525-0.277h4.556
		l0.524,0.277c0.066,0.064,0.127,0.145,0.187,0.238c0.043,0.074,0.084,0.172,0.125,0.287
		C21.156,245.951,21.179,246.084,21.179,246.234z"/>
	<circle fill="#FFC107" cx="18" cy="44.087" r="1.174"/>
	<circle fill="#FFC107" cx="12.132" cy="57.001" r="1.174"/>
	<circle fill="#FFC107" cx="23.87" cy="57.001" r="1.174"/>
	<circle fill="#FFC107" cx="10.957" cy="48.784" r="1.174"/>
	<circle fill="#FFC107" cx="25.044" cy="48.791" r="1.175"/>
	<circle fill="#FFC107" cx="18" cy="78.913" r="1.762"/>
	<circle fill="#FFC107" cx="10.956" cy="92.999" r="1.761"/>
	<circle fill="#FFC107" cx="25.044" cy="92.999" r="1.761"/>
	<circle fill="#FFC107" cx="9.783" cy="84.784" r="1.761"/>
	<path fill="#FFC107" d="M27.978,84.784c0,0.973-0.791,1.762-1.758,1.762c-0.976,0-1.763-0.789-1.763-1.762
		c0-0.976,0.788-1.763,1.763-1.763C27.187,83.021,27.978,83.809,27.978,84.784z"/>
	<circle fill="#FFC107" cx="18" cy="113.74" r="2.348"/>
	<path fill="#FFC107" d="M12.132,129.002c0,1.297-1.054,2.348-2.349,2.348c-1.299,0-2.349-1.051-2.349-2.348
		c0-1.301,1.05-2.352,2.349-2.352C11.078,126.65,12.132,127.701,12.132,129.002z"/>
	<path fill="#FFC107" d="M28.566,129.002c0,1.297-1.054,2.348-2.349,2.348c-1.299,0-2.35-1.051-2.35-2.348
		c0-1.301,1.051-2.352,2.35-2.352C27.513,126.65,28.566,127.701,28.566,129.002z"/>
	<circle fill="#FFC107" cx="8.609" cy="120.783" r="2.348"/>
	<circle fill="#FFC107" cx="27.39" cy="120.783" r="2.348"/>
	<path fill="#FFC107" d="M20.935,148.643c0,1.623-1.316,2.938-2.936,2.938c-1.621,0-2.936-1.314-2.936-2.938
		c0-1.621,1.313-2.935,2.936-2.935C19.618,145.708,20.935,147.021,20.935,148.643z"/>
	<path fill="#FFC107" d="M11.543,165.078c0,1.619-1.315,2.936-2.934,2.936c-1.621,0-2.937-1.314-2.937-2.936
		c0-1.625,1.314-2.938,2.937-2.938C10.226,162.143,11.543,163.453,11.543,165.078z"/>
	<path fill="#FFC107" d="M30.324,165.078c0,1.619-1.313,2.936-2.935,2.936s-2.934-1.314-2.934-2.936
		c0-1.625,1.313-2.938,2.934-2.938S30.324,163.453,30.324,165.078z"/>
	<path fill="#FFC107" d="M10.369,156.861c0,1.619-1.315,2.934-2.935,2.934c-1.621,0-2.936-1.314-2.936-2.934
		c0-1.625,1.314-2.934,2.936-2.934C9.054,153.928,10.369,155.236,10.369,156.861z"/>
	<path fill="#FFC107" d="M31.5,156.861c0,1.619-1.317,2.934-2.934,2.934c-1.624,0-2.937-1.314-2.937-2.934
		c0-1.625,1.313-2.934,2.937-2.934C30.183,153.928,31.5,155.236,31.5,156.861z"/>
	<circle fill="#FFC107" cx="18.001" cy="184.57" r="1.762"/>
	<path fill="#FFC107" d="M10.37,201.008c0,0.973-0.789,1.758-1.76,1.758c-0.973,0-1.762-0.785-1.762-1.758
		c0-0.975,0.789-1.762,1.762-1.762C9.581,199.246,10.37,200.033,10.37,201.008z"/>
	<path fill="#FFC107" d="M29.153,201.008c0,0.973-0.79,1.758-1.762,1.758c-0.975,0-1.762-0.785-1.762-1.758
		c0-0.975,0.787-1.762,1.762-1.762C28.363,199.246,29.153,200.033,29.153,201.008z"/>
	<circle fill="#FFC107" cx="7.435" cy="192.789" r="1.762"/>
	<circle fill="#FFC107" cx="28.565" cy="192.789" r="1.76"/>
	<rect fill="#607D8B" fill-opacity="0" width="36" height="252"/>
</g>
</svg>
