<?xml version="1.0" encoding="utf-8"?>
<!-- Generator: Adobe Illustrator 15.0.2, SVG Export Plug-In . SVG Version: 6.00 Build 0)  -->
<!DOCTYPE svg PUBLIC "-//W3C//DTD SVG 1.1//EN" "http://www.w3.org/Graphics/SVG/1.1/DTD/svg11.dtd">
<svg version="1.1" id="Calque_1" xmlns="http://www.w3.org/2000/svg" xmlns:xlink="http://www.w3.org/1999/xlink" x="0px" y="0px"
	 width="36px" height="432px" viewBox="0 0 36 432" enable-background="new 0 0 36 432" xml:space="preserve">
<g>
	<rect y="0" fill-opacity="0" width="36" height="432"/>
	<g>
		<path fill="#03A9F4" d="M28.265,26.863H8.571c-0.766,0-1.496-0.147-2.17-0.44c-0.666-0.292-1.262-0.701-1.764-1.213
			c-0.504-0.514-0.904-1.115-1.196-1.799C3.148,22.726,3,21.985,3,21.211c0-0.762,0.148-1.494,0.442-2.173
			c0.292-0.677,0.699-1.276,1.208-1.784c0.505-0.503,1.106-0.911,1.782-1.206c0.623-0.273,1.285-0.425,1.983-0.463
			c0.472-0.498,1.015-0.896,1.624-1.188c0.579-0.278,1.205-0.439,1.855-0.481c0.154-0.587,0.389-1.146,0.699-1.668
			c0.379-0.625,0.849-1.179,1.396-1.636c0.553-0.462,1.183-0.826,1.871-1.083c0.692-0.261,1.437-0.393,2.206-0.393
			c1.042,0,2.023,0.247,2.917,0.731c0.778,0.426,1.45,0.986,1.995,1.673c0.216-0.054,0.427-0.103,0.634-0.145
			c0.338-0.063,0.687-0.096,1.035-0.096c0.84,0,1.646,0.164,2.399,0.489c0.746,0.324,1.4,0.773,1.957,1.333
			c0.557,0.559,1.004,1.219,1.324,1.962c0.307,0.712,0.463,1.479,0.482,2.285c0.649,0.441,1.174,1.021,1.555,1.715
			c0.418,0.773,0.633,1.634,0.633,2.551c0,0.671-0.121,1.316-0.365,1.918c-0.235,0.597-0.57,1.137-0.981,1.604
			c-0.42,0.469-0.923,0.854-1.504,1.147c-0.574,0.293-1.203,0.48-1.861,0.553L28.265,26.863z"/>
	</g>
	<g id="sync">
		<path fill="#FFC107" d="M22.962,19.364h1.855l-2.479-2.479l-2.479,2.479h1.863c0,2.049-1.676,3.719-3.724,3.719
			c-0.625,0-1.241-0.188-1.731-0.435l-0.935,0.932c0.806,0.437,1.673,0.738,2.666,0.738C20.726,24.318,22.962,22.09,22.962,19.364z
			 M16.14,19.364h-1.857c0-2.047,1.67-3.719,3.719-3.719c0.619,0,1.241,0.188,1.738,0.435l0.928-0.931
			c-0.807-0.432-1.672-0.739-2.666-0.739c-2.727,0-4.955,2.229-4.955,4.956h-1.861l2.479,2.478L16.14,19.364L16.14,19.364z"/>
	</g>
	<g>
		<path fill="#03A9F4" d="M28.265,62.864H8.571c-0.766,0-1.496-0.148-2.17-0.441c-0.666-0.292-1.262-0.701-1.764-1.215
			c-0.504-0.51-0.904-1.115-1.196-1.795C3.148,58.722,3,57.983,3,57.213c0-0.762,0.148-1.494,0.442-2.175
			c0.292-0.677,0.699-1.278,1.208-1.784c0.505-0.503,1.106-0.91,1.782-1.206c0.623-0.274,1.285-0.427,1.983-0.461
			c0.472-0.497,1.015-0.899,1.624-1.191c0.579-0.276,1.205-0.439,1.855-0.478c0.154-0.59,0.389-1.148,0.699-1.668
			c0.379-0.631,0.849-1.181,1.396-1.641c0.553-0.462,1.183-0.822,1.871-1.083c0.692-0.261,1.437-0.391,2.206-0.391
			c1.042,0,2.023,0.245,2.917,0.731c0.778,0.424,1.45,0.987,1.995,1.673c0.216-0.054,0.427-0.104,0.634-0.142
			c0.338-0.065,0.687-0.099,1.035-0.099c0.84,0,1.646,0.162,2.399,0.487c0.746,0.325,1.4,0.774,1.957,1.337
			c0.557,0.56,1.004,1.217,1.324,1.96c0.307,0.711,0.463,1.478,0.482,2.285c0.649,0.443,1.174,1.021,1.555,1.714
			c0.418,0.775,0.633,1.634,0.633,2.552c0,0.669-0.121,1.315-0.365,1.92c-0.235,0.593-0.57,1.135-0.981,1.604
			c-0.42,0.469-0.923,0.855-1.504,1.149c-0.574,0.293-1.203,0.478-1.861,0.551L28.265,62.864z"/>
	</g>
	<g id="sync_1_">
		<path fill="#FFC107" d="M22.791,54.08l1.798-0.479l-3.041-1.755l-1.75,3.034l1.803-0.479c0.529,1.978-0.659,4.022-2.635,4.553
			c-0.603,0.165-1.246,0.143-1.787,0.032l-0.66,1.138c0.887,0.217,1.806,0.286,2.767,0.026
			C21.916,59.444,23.496,56.715,22.791,54.08z M16.201,55.844l-1.792,0.483c-0.529-1.979,0.648-4.027,2.627-4.558
			c0.6-0.158,1.246-0.143,1.789-0.031l0.658-1.138c-0.893-0.21-1.807-0.281-2.768-0.028c-2.632,0.707-4.209,3.439-3.504,6.074
			l-1.799,0.48l3.04,1.755L16.201,55.844L16.201,55.844z"/>
	</g>
	<g>
		<path fill="#03A9F4" d="M28.265,98.863H8.571c-0.766,0-1.496-0.147-2.17-0.44c-0.666-0.291-1.262-0.701-1.764-1.217
			c-0.504-0.509-0.904-1.115-1.196-1.795C3.148,94.726,3,93.982,3,93.211c0-0.762,0.148-1.494,0.442-2.172
			c0.292-0.677,0.699-1.281,1.208-1.785c0.505-0.502,1.106-0.91,1.782-1.205c0.623-0.277,1.285-0.43,1.983-0.463
			c0.472-0.498,1.015-0.9,1.624-1.191c0.579-0.274,1.205-0.44,1.855-0.479c0.154-0.588,0.389-1.146,0.699-1.668
			c0.379-0.625,0.849-1.179,1.396-1.64c0.553-0.463,1.183-0.823,1.871-1.084c0.692-0.26,1.437-0.389,2.206-0.389
			c1.042,0,2.023,0.242,2.917,0.732c0.778,0.422,1.45,0.989,1.995,1.672c0.216-0.056,0.427-0.105,0.634-0.144
			c0.338-0.063,0.687-0.096,1.035-0.096c0.84,0,1.646,0.16,2.399,0.484c0.746,0.332,1.4,0.776,1.957,1.338
			c0.557,0.559,1.004,1.223,1.324,1.961c0.307,0.709,0.463,1.477,0.482,2.285c0.649,0.442,1.174,1.021,1.555,1.721
			c0.418,0.77,0.633,1.625,0.633,2.551c0,0.662-0.121,1.316-0.365,1.914c-0.235,0.592-0.57,1.137-0.981,1.604
			c-0.42,0.469-0.923,0.854-1.504,1.147c-0.574,0.293-1.203,0.478-1.861,0.553L28.265,98.863z"/>
	</g>
	<g id="sync_2_">
		<path fill="#FFC107" d="M22.296,88.881l1.609-0.924l-3.387-0.906l-0.907,3.381l1.612-0.934c1.024,1.776,0.408,4.063-1.363,5.086
			c-0.54,0.307-1.168,0.453-1.717,0.494l-0.346,1.268c0.918-0.025,1.819-0.197,2.68-0.693
			C22.839,94.293,23.658,91.246,22.296,88.881z M16.39,92.297l-1.609,0.922c-1.023-1.768-0.412-4.051,1.361-5.076
			c0.539-0.313,1.168-0.461,1.718-0.494l0.344-1.266c-0.918,0.027-1.823,0.188-2.681,0.686c-2.361,1.367-3.178,4.412-1.815,6.777
			l-1.612,0.924l3.387,0.908L16.39,92.297L16.39,92.297z"/>
	</g>
	<g>
		<path fill="#03A9F4" d="M28.265,134.864H8.571c-0.766,0-1.496-0.147-2.17-0.44c-0.666-0.291-1.262-0.701-1.764-1.209
			c-0.504-0.517-0.904-1.115-1.196-1.803C3.148,130.727,3,129.99,3,129.212c0-0.762,0.148-1.494,0.442-2.172
			c0.292-0.677,0.699-1.281,1.208-1.785c0.505-0.502,1.106-0.91,1.782-1.205c0.623-0.271,1.285-0.43,1.983-0.463
			c0.472-0.498,1.015-0.894,1.624-1.185c0.579-0.282,1.205-0.44,1.855-0.485c0.154-0.588,0.389-1.146,0.699-1.668
			c0.379-0.625,0.849-1.179,1.396-1.64c0.553-0.455,1.183-0.823,1.871-1.084c0.692-0.252,1.437-0.389,2.206-0.389
			c1.042,0,2.023,0.242,2.917,0.732c0.778,0.43,1.45,0.989,1.995,1.672c0.216-0.056,0.427-0.099,0.634-0.144
			c0.338-0.063,0.687-0.096,1.035-0.096c0.84,0,1.646,0.168,2.399,0.492c0.746,0.324,1.4,0.77,1.957,1.33
			c0.557,0.559,1.004,1.223,1.324,1.961c0.307,0.709,0.463,1.483,0.482,2.285c0.649,0.442,1.174,1.021,1.555,1.721
			c0.418,0.77,0.633,1.625,0.633,2.551c0,0.67-0.121,1.316-0.365,1.914c-0.235,0.6-0.57,1.137-0.981,1.604
			c-0.42,0.469-0.923,0.854-1.504,1.147c-0.574,0.293-1.203,0.484-1.861,0.553L28.265,134.864z"/>
	</g>
	<g id="sync_3_">
		<path fill="#FFC107" d="M21.507,123.856l1.314-1.309h-3.506l0.001,3.502l1.317-1.318c1.449,1.451,1.44,3.813-0.007,5.265
			c-0.44,0.44-1.005,0.741-1.528,0.918l-0.002,1.315c0.877-0.262,1.705-0.653,2.408-1.356
			C23.433,128.942,23.435,125.785,21.507,123.856z M16.685,128.682l-1.311,1.313c-1.447-1.451-1.449-3.81,0-5.263
			c0.436-0.438,1.006-0.741,1.53-0.918l0.001-1.313c-0.879,0.262-1.706,0.662-2.409,1.354c-1.93,1.931-1.93,5.086,0,7.017
			l-1.317,1.315h3.506V128.682L16.685,128.682z"/>
	</g>
	<g>
		<path fill="#03A9F4" d="M28.265,170.864H8.571c-0.766,0-1.496-0.147-2.17-0.44c-0.666-0.291-1.262-0.701-1.764-1.209
			c-0.504-0.517-0.904-1.115-1.196-1.804C3.148,166.727,3,165.99,3,165.212c0-0.763,0.148-1.494,0.442-2.173
			c0.292-0.676,0.699-1.272,1.208-1.784c0.505-0.502,1.106-0.91,1.782-1.205c0.623-0.271,1.285-0.422,1.983-0.463
			c0.472-0.498,1.015-0.894,1.624-1.185c0.579-0.283,1.205-0.44,1.855-0.486c0.154-0.588,0.389-1.146,0.699-1.668
			c0.379-0.625,0.849-1.178,1.396-1.639c0.553-0.455,1.183-0.824,1.871-1.076c0.692-0.26,1.437-0.396,2.206-0.396
			c1.042,0,2.023,0.25,2.917,0.731c0.778,0.431,1.45,0.99,1.995,1.672c0.216-0.055,0.427-0.098,0.634-0.143
			c0.338-0.063,0.687-0.096,1.035-0.096c0.84,0,1.646,0.168,2.399,0.492c0.746,0.323,1.4,0.77,1.957,1.329s1.004,1.224,1.324,1.962
			c0.307,0.717,0.463,1.483,0.482,2.284c0.649,0.443,1.174,1.021,1.555,1.722c0.418,0.77,0.633,1.633,0.633,2.551
			c0,0.67-0.121,1.316-0.365,1.914c-0.235,0.6-0.57,1.137-0.981,1.604c-0.42,0.47-0.923,0.855-1.504,1.148
			c-0.574,0.293-1.203,0.484-1.861,0.553L28.265,170.864z"/>
	</g>
	<g id="sync_4_">
		<path fill="#FFC107" d="M20.479,159.073l0.932-1.61l-3.391,0.907l0.908,3.384l0.934-1.613c1.773,1.022,2.383,3.311,1.359,5.086
			c-0.312,0.537-0.785,0.977-1.242,1.287l0.338,1.268c0.777-0.475,1.479-1.078,1.976-1.936
			C23.656,163.481,22.845,160.434,20.479,159.073z M17.068,164.977l-0.927,1.607c-1.771-1.023-2.387-3.308-1.361-5.076
			c0.311-0.543,0.783-0.984,1.242-1.287l-0.336-1.269c-0.78,0.479-1.48,1.072-1.978,1.938c-1.362,2.356-0.546,5.402,1.815,6.77
			l-0.934,1.611l3.387-0.908L17.068,164.977L17.068,164.977z"/>
	</g>
	<g>
		<path fill="#03A9F4" d="M28.265,206.864H8.571c-0.766,0-1.496-0.147-2.17-0.44c-0.666-0.291-1.262-0.701-1.764-1.209
			c-0.504-0.517-0.904-1.115-1.196-1.795C3.148,202.728,3,201.99,3,201.22c0-0.763,0.148-1.494,0.442-2.181
			c0.292-0.676,0.699-1.272,1.208-1.784c0.505-0.502,1.106-0.91,1.782-1.205c0.623-0.271,1.285-0.422,1.983-0.463
			c0.472-0.49,1.015-0.894,1.624-1.185c0.579-0.283,1.205-0.44,1.855-0.479c0.154-0.597,0.389-1.154,0.699-1.668
			c0.379-0.634,0.849-1.187,1.396-1.64c0.553-0.463,1.183-0.823,1.871-1.084c0.692-0.26,1.437-0.396,2.206-0.396
			c1.042,0,2.023,0.25,2.917,0.731c0.778,0.431,1.45,0.99,1.995,1.672c0.216-0.047,0.427-0.098,0.634-0.135
			c0.338-0.072,0.687-0.104,1.035-0.104c0.84,0,1.646,0.168,2.399,0.491c0.746,0.324,1.4,0.771,1.957,1.33
			c0.557,0.566,1.004,1.224,1.324,1.961c0.307,0.718,0.463,1.484,0.482,2.285c0.649,0.451,1.174,1.021,1.555,1.722
			c0.418,0.77,0.633,1.633,0.633,2.551c0,0.67-0.121,1.315-0.365,1.922c-0.235,0.592-0.57,1.129-0.981,1.596
			c-0.42,0.47-0.923,0.855-1.504,1.156c-0.574,0.293-1.203,0.477-1.861,0.545L28.265,206.864z"/>
	</g>
	<g id="sync_5_">
		<path fill="#FFC107" d="M19.286,194.577l0.479-1.795l-3.037,1.756l1.756,3.031l0.482-1.797c1.979,0.529,3.155,2.582,2.627,4.555
			c-0.162,0.604-0.502,1.146-0.865,1.568l0.656,1.141c0.629-0.668,1.146-1.428,1.405-2.389
			C23.494,198.014,21.917,195.282,19.286,194.577z M17.519,201.168l-0.481,1.791c-1.976-0.529-3.157-2.576-2.627-4.552
			c0.161-0.604,0.5-1.153,0.866-1.569l-0.656-1.14c-0.63,0.67-1.148,1.426-1.408,2.39c-0.705,2.635,0.873,5.362,3.504,6.067
			l-0.478,1.795l3.034-1.756L17.519,201.168L17.519,201.168z"/>
	</g>
	<g>
		<path fill="#03A9F4" d="M28.265,242.864H8.571c-0.766,0-1.496-0.147-2.17-0.44c-0.666-0.291-1.262-0.701-1.764-1.218
			c-0.504-0.508-0.904-1.114-1.196-1.795C3.148,238.72,3,237.983,3,237.212c0-0.763,0.148-1.494,0.442-2.181
			c0.292-0.676,0.699-1.272,1.208-1.776c0.505-0.511,1.106-0.91,1.782-1.214c0.623-0.27,1.285-0.422,1.983-0.454
			c0.472-0.498,1.015-0.9,1.624-1.191c0.579-0.275,1.205-0.441,1.855-0.479c0.154-0.588,0.389-1.146,0.699-1.668
			c0.379-0.633,0.849-1.178,1.396-1.639c0.553-0.463,1.183-0.824,1.871-1.084c0.692-0.26,1.437-0.389,2.206-0.389
			c1.042,0,2.023,0.242,2.917,0.725c0.778,0.43,1.45,0.99,1.995,1.68c0.216-0.055,0.427-0.104,0.634-0.143
			c0.338-0.064,0.687-0.104,1.035-0.104c0.84,0,1.646,0.168,2.399,0.491c0.746,0.324,1.4,0.777,1.957,1.338
			c0.557,0.56,1.004,1.216,1.324,1.962c0.307,0.709,0.463,1.477,0.482,2.284c0.649,0.443,1.174,1.015,1.555,1.713
			c0.418,0.777,0.633,1.634,0.633,2.552c0,0.67-0.121,1.315-0.365,1.922c-0.235,0.592-0.57,1.129-0.981,1.596
			c-0.42,0.469-0.923,0.863-1.504,1.156c-0.574,0.293-1.203,0.477-1.861,0.553L28.265,242.864z"/>
	</g>
	<g id="sync_6_">
		<path fill="#FFC107" d="M18.001,230.399v-1.854l-2.479,2.483l2.479,2.473v-1.856c2.048,0,3.72,1.674,3.718,3.721
			c0,0.621-0.188,1.236-0.434,1.732l0.932,0.934c0.433-0.809,0.738-1.672,0.738-2.666C22.956,232.639,20.728,230.399,18.001,230.399
			z M18.001,237.223v1.858c-2.047,0-3.719-1.67-3.719-3.719c0-0.627,0.188-1.244,0.434-1.742l-0.93-0.924
			c-0.434,0.806-0.74,1.672-0.74,2.666c0,2.728,2.229,4.955,4.955,4.955v1.857l2.477-2.476L18.001,237.223L18.001,237.223z"/>
	</g>
	<g>
		<path fill="#03A9F4" d="M28.265,278.864H8.571c-0.766,0-1.496-0.147-2.17-0.44c-0.666-0.291-1.262-0.701-1.764-1.218
			c-0.504-0.508-0.904-1.114-1.196-1.795C3.148,274.727,3,273.983,3,273.212c0-0.763,0.148-1.494,0.442-2.173
			c0.292-0.676,0.699-1.28,1.208-1.784c0.505-0.502,1.106-0.91,1.782-1.205c0.623-0.277,1.285-0.431,1.983-0.463
			c0.472-0.498,1.015-0.9,1.624-1.191c0.579-0.275,1.205-0.441,1.855-0.479c0.154-0.588,0.389-1.146,0.699-1.668
			c0.379-0.625,0.849-1.178,1.396-1.639c0.553-0.463,1.183-0.824,1.871-1.084c0.692-0.26,1.437-0.389,2.206-0.389
			c1.042,0,2.023,0.242,2.917,0.731c0.778,0.422,1.45,0.982,1.995,1.672c0.216-0.055,0.427-0.104,0.634-0.143
			c0.338-0.064,0.687-0.096,1.035-0.096c0.84,0,1.646,0.159,2.399,0.483c0.746,0.324,1.4,0.777,1.957,1.338
			c0.557,0.56,1.004,1.216,1.324,1.961c0.307,0.709,0.463,1.478,0.482,2.285c0.649,0.443,1.174,1.021,1.555,1.713
			c0.418,0.777,0.633,1.634,0.633,2.552c0,0.67-0.121,1.315-0.365,1.922c-0.235,0.592-0.57,1.137-0.981,1.604
			c-0.42,0.47-0.923,0.855-1.504,1.148c-0.574,0.293-1.203,0.477-1.861,0.553L28.265,278.864z"/>
	</g>
	<g id="sync_7_">
		<path fill="#FFC107" d="M16.716,266.571l-0.481-1.793l-1.75,3.039l3.036,1.746l-0.482-1.797c1.979-0.529,4.025,0.654,4.555,2.635
			c0.162,0.596,0.142,1.24,0.031,1.787l1.139,0.656c0.215-0.887,0.283-1.803,0.027-2.765
			C22.084,267.446,19.351,265.865,16.716,266.571z M18.483,273.159l0.48,1.791c-1.976,0.527-4.025-0.649-4.554-2.623
			c-0.161-0.604-0.142-1.25-0.032-1.789l-1.138-0.661c-0.209,0.896-0.283,1.811-0.028,2.771c0.705,2.635,3.438,4.205,6.072,3.5
			l0.482,1.803l1.75-3.041L18.483,273.159L18.483,273.159z"/>
	</g>
	<g>
		<path fill="#03A9F4" d="M28.265,314.864H8.571c-0.766,0-1.496-0.147-2.17-0.44c-0.666-0.291-1.262-0.701-1.764-1.209
			c-0.504-0.517-0.904-1.123-1.196-1.804C3.148,310.727,3,309.983,3,309.212c0-0.763,0.148-1.494,0.442-2.173
			c0.292-0.676,0.699-1.28,1.208-1.784c0.505-0.502,1.106-0.91,1.782-1.205c0.623-0.271,1.285-0.431,1.983-0.463
			c0.472-0.498,1.015-0.9,1.624-1.191c0.579-0.275,1.205-0.441,1.855-0.479c0.154-0.588,0.389-1.146,0.699-1.668
			c0.379-0.625,0.849-1.178,1.396-1.639c0.553-0.455,1.183-0.824,1.871-1.084c0.692-0.26,1.437-0.389,2.206-0.389
			c1.042,0,2.023,0.242,2.917,0.731c0.778,0.422,1.45,0.99,1.995,1.672c0.216-0.055,0.427-0.098,0.634-0.143
			c0.338-0.064,0.687-0.096,1.035-0.096c0.84,0,1.646,0.159,2.399,0.491c0.746,0.324,1.4,0.771,1.957,1.33s1.004,1.224,1.324,1.961
			c0.307,0.709,0.463,1.478,0.482,2.285c0.649,0.443,1.174,1.021,1.555,1.722c0.418,0.77,0.633,1.625,0.633,2.551
			c0,0.67-0.121,1.315-0.365,1.914c-0.235,0.592-0.57,1.137-0.981,1.604c-0.42,0.47-0.923,0.855-1.504,1.148
			c-0.574,0.293-1.203,0.477-1.861,0.553L28.265,314.864z"/>
	</g>
	<g id="sync_8_">
		<path fill="#FFC107" d="M15.522,303.067l-0.932-1.609l-0.908,3.39l3.391,0.906l-0.934-1.611c1.772-1.025,4.059-0.408,5.082,1.367
			c0.311,0.535,0.455,1.16,0.489,1.713l1.271,0.346c-0.026-0.912-0.193-1.817-0.69-2.684
			C20.931,302.526,17.884,301.706,15.522,303.067z M18.935,308.977l0.926,1.607c-1.771,1.022-4.057,0.411-5.08-1.365
			c-0.311-0.533-0.457-1.16-0.496-1.713l-1.266-0.347c0.027,0.916,0.191,1.82,0.688,2.687c1.364,2.356,4.409,3.174,6.771,1.807
			l0.934,1.611l0.906-3.383L18.935,308.977L18.935,308.977z"/>
	</g>
	<g>
		<path fill="#03A9F4" d="M28.265,350.864H8.571c-0.766,0-1.496-0.147-2.17-0.44c-0.666-0.291-1.262-0.701-1.764-1.209
			c-0.504-0.517-0.904-1.115-1.196-1.804C3.148,346.727,3,345.99,3,345.212c0-0.763,0.148-1.494,0.442-2.173
			c0.292-0.676,0.699-1.28,1.208-1.784c0.505-0.502,1.106-0.91,1.782-1.205c0.623-0.271,1.285-0.431,1.983-0.463
			c0.472-0.498,1.015-0.894,1.624-1.185c0.579-0.283,1.205-0.44,1.855-0.486c0.154-0.588,0.389-1.146,0.699-1.668
			c0.379-0.625,0.849-1.178,1.396-1.639c0.553-0.455,1.183-0.824,1.871-1.084c0.692-0.252,1.437-0.389,2.206-0.389
			c1.042,0,2.023,0.242,2.917,0.731c0.778,0.431,1.45,0.99,1.995,1.672c0.216-0.055,0.427-0.098,0.634-0.143
			c0.338-0.064,0.687-0.096,1.035-0.096c0.84,0,1.646,0.168,2.399,0.491c0.746,0.324,1.4,0.771,1.957,1.33s1.004,1.224,1.324,1.961
			c0.307,0.709,0.463,1.484,0.482,2.285c0.649,0.443,1.174,1.021,1.555,1.722c0.418,0.77,0.633,1.625,0.633,2.551
			c0,0.67-0.121,1.315-0.365,1.914c-0.235,0.6-0.57,1.137-0.981,1.604c-0.42,0.47-0.923,0.855-1.504,1.148
			c-0.574,0.293-1.203,0.483-1.861,0.553L28.265,350.864z"/>
	</g>
	<g id="sync_9_">
		<path fill="#FFC107" d="M14.496,339.856l-1.315-1.307v3.5l3.504-0.002l-1.316-1.316c1.448-1.445,3.816-1.441,5.26,0.002
			c0.444,0.439,0.743,1.014,0.922,1.537l1.316,0.002c-0.262-0.877-0.659-1.705-1.361-2.408
			C19.579,337.936,16.423,337.934,14.496,339.856z M19.318,344.682l1.31,1.313c-1.443,1.445-3.809,1.445-5.258,0
			c-0.436-0.438-0.74-1.012-0.923-1.528l-1.312-0.002c0.266,0.879,0.658,1.705,1.361,2.407c1.926,1.931,5.081,1.931,7.008,0
			l1.317,1.316l-0.001-3.508L19.318,344.682L19.318,344.682z"/>
	</g>
	<g>
		<path fill="#03A9F4" d="M28.265,386.864H8.571c-0.766,0-1.496-0.147-2.17-0.44c-0.666-0.291-1.262-0.701-1.764-1.209
			c-0.504-0.517-0.904-1.115-1.196-1.795C3.148,382.728,3,381.99,3,381.212c0-0.763,0.148-1.494,0.442-2.172
			c0.292-0.677,0.699-1.273,1.208-1.785c0.505-0.502,1.106-0.91,1.782-1.205c0.623-0.271,1.285-0.422,1.983-0.463
			c0.472-0.498,1.015-0.894,1.624-1.185c0.579-0.283,1.205-0.44,1.855-0.485c0.154-0.589,0.389-1.146,0.699-1.66
			c0.379-0.633,0.849-1.187,1.396-1.64c0.553-0.463,1.183-0.832,1.871-1.084c0.692-0.26,1.437-0.396,2.206-0.396
			c1.042,0,2.023,0.25,2.917,0.731c0.778,0.431,1.45,0.99,1.995,1.673c0.216-0.048,0.427-0.099,0.634-0.136
			c0.338-0.071,0.687-0.104,1.035-0.104c0.84,0,1.646,0.168,2.399,0.492c0.746,0.323,1.4,0.77,1.957,1.33
			c0.557,0.565,1.004,1.223,1.324,1.961c0.307,0.717,0.463,1.483,0.482,2.285c0.649,0.442,1.174,1.021,1.555,1.721
			c0.418,0.77,0.633,1.633,0.633,2.551c0,0.67-0.121,1.316-0.365,1.914c-0.235,0.6-0.57,1.137-0.981,1.604
			c-0.42,0.47-0.923,0.855-1.504,1.148c-0.574,0.293-1.203,0.484-1.861,0.553L28.265,386.864z"/>
	</g>
	<g id="sync_10_">
		<path fill="#FFC107" d="M13.707,376.889l-1.61-0.93l0.908,3.389l3.385-0.908l-1.611-0.934c1.023-1.775,3.311-2.38,5.083-1.363
			c0.54,0.313,0.979,0.785,1.286,1.246l1.273-0.342c-0.48-0.773-1.08-1.476-1.941-1.972
			C18.118,373.709,15.07,374.526,13.707,376.889z M19.613,380.297l1.608,0.93c-1.023,1.77-3.308,2.383-5.082,1.357
			c-0.537-0.306-0.979-0.775-1.287-1.238l-1.267,0.334c0.483,0.783,1.075,1.481,1.937,1.979c2.361,1.359,5.406,0.552,6.771-1.813
			l1.611,0.932l-0.908-3.391L19.613,380.297L19.613,380.297z"/>
	</g>
	<g>
		<path fill="#03A9F4" d="M28.265,422.866H8.571c-0.766,0-1.496-0.155-2.17-0.448c-0.666-0.291-1.262-0.693-1.764-1.209
			c-0.504-0.509-0.904-1.115-1.196-1.795C3.148,418.723,3,417.986,3,417.215c0-0.763,0.148-1.494,0.442-2.181
			c0.292-0.676,0.699-1.272,1.208-1.776c0.505-0.51,1.106-0.918,1.782-1.213c0.623-0.271,1.285-0.422,1.983-0.455
			c0.472-0.498,1.015-0.9,1.624-1.191c0.579-0.283,1.205-0.44,1.855-0.479c0.154-0.588,0.389-1.154,0.699-1.668
			c0.379-0.634,0.849-1.187,1.396-1.64c0.553-0.463,1.183-0.823,1.871-1.084c0.692-0.26,1.437-0.396,2.206-0.396
			c1.042,0,2.023,0.25,2.917,0.731c0.778,0.431,1.45,0.99,1.995,1.681c0.216-0.056,0.427-0.105,0.634-0.144
			c0.338-0.071,0.687-0.104,1.035-0.104c0.84,0,1.646,0.168,2.399,0.492c0.746,0.323,1.4,0.77,1.957,1.338
			c0.557,0.559,1.004,1.215,1.324,1.961c0.307,0.709,0.463,1.477,0.482,2.285c0.649,0.442,1.174,1.014,1.555,1.713
			c0.418,0.776,0.633,1.633,0.633,2.551c0,0.67-0.121,1.315-0.365,1.922c-0.235,0.592-0.57,1.129-0.981,1.596
			c-0.42,0.47-0.923,0.863-1.504,1.156c-0.574,0.293-1.203,0.478-1.861,0.545L28.265,422.866z"/>
	</g>
	<g id="sync_11_">
		<path fill="#FFC107" d="M13.211,414.081l-1.797-0.483l1.755,3.039l3.034-1.756l-1.795-0.479c0.528-1.979,2.581-3.158,4.558-2.629
			c0.601,0.156,1.145,0.5,1.561,0.861l1.142-0.652c-0.663-0.625-1.424-1.147-2.382-1.406
			C16.651,409.87,13.916,411.448,13.211,414.081z M19.802,415.846l1.791,0.479c-0.529,1.98-2.576,3.16-4.556,2.631
			c-0.599-0.155-1.146-0.502-1.565-0.862l-1.135,0.653c0.666,0.625,1.422,1.146,2.381,1.406c2.635,0.705,5.366-0.873,6.072-3.508
			l1.799,0.484l-1.756-3.039L19.802,415.846L19.802,415.846z"/>
	</g>
</g>
</svg>
