<?xml version="1.0" encoding="utf-8"?>
<!-- Generator: Adobe Illustrator 15.0.0, SVG Export Plug-In . SVG Version: 6.00 Build 0)  -->
<!DOCTYPE svg PUBLIC "-//W3C//DTD SVG 1.1//EN" "http://www.w3.org/Graphics/SVG/1.1/DTD/svg11.dtd" [
	<!ENTITY ns_extend "http://ns.adobe.com/Extensibility/1.0/">
	<!ENTITY ns_ai "http://ns.adobe.com/AdobeIllustrator/10.0/">
	<!ENTITY ns_graphs "http://ns.adobe.com/Graphs/1.0/">
	<!ENTITY ns_vars "http://ns.adobe.com/Variables/1.0/">
	<!ENTITY ns_imrep "http://ns.adobe.com/ImageReplacement/1.0/">
	<!ENTITY ns_sfw "http://ns.adobe.com/SaveForWeb/1.0/">
	<!ENTITY ns_custom "http://ns.adobe.com/GenericCustomNamespace/1.0/">
	<!ENTITY ns_adobe_xpath "http://ns.adobe.com/XPath/1.0/">
]>
<svg version="1.1" id="Calque_1" xmlns:x="&ns_extend;" xmlns:i="&ns_ai;" xmlns:graph="&ns_graphs;"
	 xmlns="http://www.w3.org/2000/svg" xmlns:xlink="http://www.w3.org/1999/xlink" x="0px" y="0px" width="56px" height="56px"
	 viewBox="0 0 56 56" enable-background="new 0 0 56 56" xml:space="preserve">
<metadata>
	<sfw  xmlns="&ns_sfw;">
		<slices></slices>
		<sliceSourceBounds  x="-0.5" y="1.994" width="56.001" height="53.011" bottomLeftOrigin="true"></sliceSourceBounds>
	</sfw>
</metadata>
<g>
	<path d="M6.627,33.182l-0.334-1.877L3.517,15.711l-0.51-2.862h2.907h33.249h2.764l-0.286,2.267c0.92,0.057,1.813,0.2,2.672,0.424
		l1.166-9.194l0.271-2.138l2.154,0.01l6.75,0.033c0.734,0,1.344-0.604,1.346-1.347c0.002-0.368-0.133-0.698-0.393-0.956
		c-0.262-0.264-0.59-0.401-0.955-0.402L44.536,1.495c-0.67,0.002-1.238,0.511-1.323,1.186l-0.667,5.295l-0.269,2.131h-2.146
		L1.37,10.11c-0.087,0-0.161,0.007-0.238,0.02c-0.356,0.062-0.67,0.261-0.882,0.563c-0.211,0.299-0.292,0.661-0.229,1.019
		l4.101,22.979c0.109,0.632,0.624,1.097,1.252,1.139L23.5,37.029v-1.084c0-0.563,0.083-1.104,0.209-1.629l-15.18-1.01L6.627,33.182z
		"/>
	<path d="M12.65,48.173c-0.924,0-1.676,0.748-1.676,1.67c0,0.923,0.752,1.673,1.676,1.673c0.921,0,1.671-0.75,1.671-1.673
		C14.321,48.921,13.571,48.173,12.65,48.173z"/>
	<path d="M31.659,27.126c0-4.44,4.077-8.052,9.091-8.052c0.13,0,0.257,0.013,0.385,0.017c0.934,0.035,1.828,0.193,2.668,0.46
		c3.514,1.115,6.037,4.084,6.037,7.575v2.644h2v-2.644c0-4.498-3.277-8.315-7.781-9.594c-0.851-0.242-1.746-0.381-2.672-0.429
		c-0.212-0.011-0.422-0.029-0.637-0.029c-6.113,0-11.091,4.51-11.091,10.052v2.644h2V27.126z"/>
	<path fill="#FFB300" d="M30.512,52.505h20.477c1.66,0,3.012-1.351,3.012-3.012V35.945c0-1.463-1.052-2.709-2.502-2.959l-1.45-0.252
		H42.13h-2.726h-7.948l-1.455,0.252c-0.967,0.166-1.748,0.783-2.167,1.604c-0.209,0.41-0.334,0.867-0.334,1.354v1.35v12.198
		C27.5,51.154,28.852,52.505,30.512,52.505z M37.361,39.255c0-0.457,0.095-0.892,0.259-1.289c0.509-1.229,1.719-2.098,3.13-2.098
		c0.336,0,0.654,0.063,0.962,0.155c1.396,0.418,2.425,1.701,2.425,3.231v4.159c0,1.868-1.52,3.388-3.387,3.388
		c-1.868,0-3.389-1.52-3.389-3.388V39.255z M35.702,51.505c-0.033,0.002-0.063,0.011-0.097,0.011s-0.064-0.009-0.098-0.011H35.702z"
		/>
	<path d="M30.512,54.506h20.477c2.764,0,5.013-2.249,5.013-5.012V35.945c-0.001-2.467-1.808-4.521-4.161-4.93V29.77h-2v0.965h-7.456
		h-2.726h-7.999V29.77h-2v1.246c-1.856,0.321-3.354,1.674-3.913,3.438c-0.149,0.474-0.246,0.971-0.246,1.492v1.219v12.33
		C25.5,52.257,27.748,54.506,30.512,54.506z M27.5,37.295v-1.35c0-0.487,0.125-0.944,0.334-1.354c0.419-0.821,1.2-1.438,2.167-1.604
		l1.455-0.252h7.948h2.726h7.918l1.45,0.252c1.45,0.25,2.502,1.496,2.502,2.959v13.548c0,1.661-1.352,3.012-3.012,3.012H30.512
		c-1.66,0-3.012-1.351-3.012-3.012V37.295z"/>
	<path d="M35.702,51.505h-0.194c0.033,0.002,0.064,0.011,0.098,0.011S35.669,51.507,35.702,51.505z"/>
	<path d="M40.75,46.802c1.867,0,3.387-1.52,3.387-3.388v-4.159c0-1.53-1.029-2.813-2.425-3.231
		c-0.308-0.092-0.626-0.155-0.962-0.155c-1.411,0-2.621,0.868-3.13,2.098c-0.164,0.397-0.259,0.832-0.259,1.289v4.159
		C37.361,45.282,38.882,46.802,40.75,46.802z M39.361,39.255c0-0.472,0.238-0.889,0.601-1.14c0.226-0.155,0.495-0.247,0.788-0.247
		c0.084,0,0.165,0.011,0.245,0.024c0.647,0.115,1.142,0.682,1.142,1.361v4.16c0,0.766-0.621,1.388-1.387,1.388
		s-1.389-0.622-1.389-1.388V39.255z"/>
</g>
</svg>
